v -4.78337001800537 -2.59513033284975e-009 -0.978317022323608
v -4.78337001800537 -2.59513033284975e-009 -2.70010995864868
v -1.6701899766922 -2.59513033284975e-009 -0.374375998973846
v -1.16270995140076 -2.59513033284975e-009 -2.70010995864868
v 0.476493000984192 -2.59513033284975e-009 0.0652865990996361
v 3.21364998817444 -2.59513033284975e-009 -2.70010995864868
v 4.78337001800537 -2.59513033284975e-009 0.947378993034363
v 4.78337001800537 -2.59513033284975e-009 -2.70010995864868
v 4.78337001800537 -2.59513033284975e-009 2.70010995864868
v 1.68331003189087 -2.59513033284975e-009 2.70010995864868
v -2.34103989601135 -2.59513033284975e-009 2.70010995864868
v -4.78337001800537 -2.59513033284975e-009 2.70010995864868
v -5.06169986724854 2.59513033284975e-009 2.89618992805481
v -5.06169986724854 2.59513033284975e-009 -2.89618992805481
v -4.78337001800537 2.59513033284975e-009 2.70010995864868
v -4.78337001800537 2.59513033284975e-009 -2.70010995864868
v 5.06169986724854 2.59513033284975e-009 -2.89618992805481
v 4.78337001800537 2.59513033284975e-009 -2.70010995864868
v 5.06169986724854 2.59513033284975e-009 2.89618992805481
v 4.78337001800537 2.59513033284975e-009 2.70010995864868
vt 0.00390625093132257 0.660684585571289
vt 0.00390625093132257 0.503906011581421
vt 0.164072588086128 0.715829372406006
vt 0.190181195735931 0.504083275794983
vt 0.274514645338058 0.755967795848846
vt 0.415335536003113 0.50429767370224
vt 0.496094256639481 0.836498618125916
vt 0.496094256639481 0.504374563694
vt 0.496094256639481 0.996093988418579
vt 0.336603194475174 0.995941936969757
vt 0.129558891057968 0.995745062828064
vt 0.00390625093132257 0.995625436306
vt 0.503906011581421 0.978206396102905
vt 0.996093988418579 0.978206396102905
vt 0.542249143123627 0.996093988418579
vt 0.957750558853149 0.996093988418579
vn 0 -1 0
g pPlane5_DUP map_01
f 1/1/1 2/2/1 3/3/1
f 3/3/1 2/2/1 4/4/1
f 3/3/1 4/4/1 5/5/1
f 5/5/1 4/4/1 6/6/1
f 5/5/1 6/6/1 7/7/1
f 7/7/1 6/6/1 8/8/1
f 7/7/1 9/9/1 5/5/1
f 5/5/1 9/9/1 10/10/1
f 5/5/1 10/10/1 3/3/1
f 3/3/1 10/10/1 11/11/1
f 3/3/1 11/11/1 1/1/1
f 1/1/1 11/11/1 12/12/1
g pPlane4 map_01
f 13/13/1 14/14/1 15/15/1
f 15/15/1 14/14/1 16/16/1
f 14/13/1 17/14/1 16/15/1
f 16/15/1 17/14/1 18/16/1
f 19/13/1 13/14/1 20/15/1
f 20/15/1 13/14/1 15/16/1
f 17/13/1 19/14/1 18/15/1
f 18/15/1 19/14/1 20/16/1
